<svg width="24" height="25" viewBox="0 0 24 25" fill="none" xmlns="http://www.w3.org/2000/svg">
<path d="M12.4706 12.6739C12.4907 12.6548 12.5107 12.6356 12.5307 12.6163C12.5706 12.5778 12.6104 12.539 12.6499 12.5L12.7306 12.4202L12.9755 12.1782L13.308 11.8498L13.5936 11.5676L13.8618 11.3026L14.1417 11.026L14.3984 10.7724L14.7559 10.4192C14.8238 10.3525 14.893 10.287 14.9633 10.2227C15.0929 10.1042 15.2263 9.9899 15.3636 9.87988C15.4893 9.77901 15.618 9.68195 15.7499 9.58856C15.9344 9.45781 16.1245 9.33475 16.3202 9.21933C16.5115 9.10658 16.7077 9.0016 16.9089 8.90439C17.0977 8.81317 17.2904 8.72921 17.4871 8.65246C17.5967 8.60976 17.7075 8.56944 17.8193 8.53135C17.8753 8.51234 17.9316 8.49391 17.9881 8.47605C17.4921 6.52392 16.5834 4.70082 15.3232 3.12952C15.2028 2.97975 15.0503 2.85894 14.877 2.77603C14.7036 2.69312 14.5138 2.65023 14.3216 2.65051L4.02761 2.65039C3.98697 2.65035 3.94736 2.66319 3.91446 2.68705C3.88155 2.7109 3.85705 2.74456 3.84444 2.7832C3.83184 2.82184 3.8318 2.86347 3.84431 2.90214C3.85682 2.94081 3.88125 2.97452 3.91409 2.99846C7.42808 5.57391 10.3397 8.88301 12.4472 12.6961L12.4706 12.6739Z" fill="#00D6B9"/>
<path d="M20.7506 14.4657L20.7437 14.4779L20.7514 14.4663L20.7989 14.377C20.7827 14.4065 20.7669 14.4364 20.7506 14.4657Z" fill="#133C9A"/>
<path d="M20.9724 14.0506L20.9851 14.0269L20.9912 14.0146C20.985 14.0267 20.9786 14.0386 20.9724 14.0506Z" fill="#133C9A"/>
<path d="M23.9998 8.93154C22.2062 8.05275 20.1518 7.86518 18.2286 8.40448C18.1479 8.42717 18.0677 8.45107 17.9881 8.4762C17.9316 8.49406 17.8753 8.51249 17.8192 8.5315C17.7074 8.56951 17.5967 8.60991 17.4871 8.65261C17.2905 8.72922 17.0977 8.81324 16.9088 8.90454C16.7078 9.0016 16.5116 9.10658 16.3201 9.21948C16.1246 9.33476 15.9345 9.45781 15.7498 9.58871C15.618 9.68203 15.4893 9.77916 15.3635 9.88003C15.2264 9.98998 15.0929 10.1043 14.9633 10.2229C14.893 10.2871 14.8238 10.3526 14.7558 10.4193L14.3983 10.7725L14.1416 11.0262L13.8618 11.3027L13.5935 11.5678L13.3079 11.85L12.9755 12.1784L12.7306 12.4204L12.6499 12.5001C12.6104 12.5392 12.5706 12.5779 12.5306 12.6165C12.5107 12.6357 12.4906 12.6549 12.4705 12.6741C12.4404 12.7028 12.4101 12.7315 12.3797 12.7599C12.3462 12.7914 12.3124 12.8226 12.2786 12.8537C11.3934 13.667 10.4084 14.3645 9.34741 14.9293C9.41077 14.9592 9.47428 14.9888 9.53793 15.0183C9.58819 15.0415 9.63859 15.0647 9.68906 15.0878C9.73781 15.11 9.7867 15.1321 9.83559 15.1542C9.88376 15.1758 9.93193 15.1974 9.98024 15.2187C10.033 15.2421 10.0859 15.2655 10.1388 15.2886C10.1998 15.3152 10.2609 15.3416 10.3221 15.3679C10.3807 15.393 10.4393 15.4179 10.4982 15.4427C10.5742 15.4748 10.6505 15.5065 10.727 15.538C10.7883 15.5633 10.8498 15.5884 10.9114 15.6132C11.0061 15.6515 11.101 15.6893 11.1962 15.7267C11.286 15.7619 11.376 15.7968 11.4663 15.8313C11.5337 15.857 11.6012 15.8825 11.6689 15.9077C11.7853 15.9512 11.902 15.994 12.0191 16.0361C12.0783 16.0574 12.1374 16.0785 12.1967 16.0994C12.2795 16.1286 12.3625 16.1575 12.4457 16.186C12.514 16.2095 12.5825 16.2328 12.6511 16.2558C12.7513 16.2894 12.8519 16.3226 12.9527 16.3553C13.0585 16.3896 13.1646 16.4234 13.2711 16.4567C13.401 16.4972 13.5313 16.537 13.6622 16.5761C13.7495 16.6021 13.8371 16.6278 13.9248 16.6531C14.1006 16.7039 14.2771 16.7533 14.4546 16.8012C14.5184 16.8184 14.5821 16.8346 14.6457 16.8498C14.7666 16.8786 14.8873 16.9037 15.0077 16.9251C15.1461 16.9498 15.2841 16.9696 15.4214 16.9847C15.6088 17.0051 15.7947 17.0169 15.9791 17.0197C16.1476 17.0223 16.3144 17.0178 16.4798 17.0061C16.6374 16.995 16.7933 16.9775 16.9476 16.9535C17.1602 16.9207 17.3706 16.8754 17.5778 16.818C17.7167 16.7795 17.8534 16.7356 17.9882 16.6864C18.1128 16.641 18.2353 16.5911 18.356 16.5367C18.495 16.4741 18.6311 16.4056 18.7643 16.3313C18.8299 16.2947 18.8947 16.2569 18.9586 16.2176C19.0201 16.1798 19.0809 16.1408 19.1409 16.1006C19.2356 16.037 19.3284 15.9704 19.4194 15.9006C19.497 15.8411 19.5732 15.7792 19.648 15.7152C19.7822 15.6001 19.9116 15.4779 20.0358 15.3486C20.0968 15.2851 20.1564 15.22 20.2148 15.1531C20.2887 15.0685 20.3604 14.9813 20.43 14.8914C20.4853 14.8198 20.5393 14.7465 20.5918 14.6716C20.7399 14.4598 20.8741 14.2387 20.9937 14.0096L21.1314 13.7349L22.3758 11.2541L22.3737 11.2592C22.77 10.391 23.321 9.60232 23.9998 8.93154Z" fill="#133C9A"/>
<path d="M8.38845 21.7361C10.9101 21.737 13.3861 21.0635 15.5597 19.7853C17.7334 18.5071 19.5256 16.6707 20.7506 14.4667C20.8354 14.3144 20.9175 14.1605 20.9967 14.0048C20.8765 14.2358 20.7413 14.4587 20.592 14.6721C20.5395 14.747 20.4856 14.8203 20.4302 14.8919C20.3607 14.9818 20.289 15.069 20.2151 15.1536C20.1567 15.2204 20.097 15.2856 20.036 15.3491C19.912 15.4783 19.7826 15.6005 19.6482 15.7157C19.5735 15.7797 19.4973 15.8415 19.4196 15.9011C19.3287 15.9709 19.2359 16.0375 19.1411 16.101C19.0811 16.1413 19.0203 16.1803 18.9589 16.218C18.8949 16.2574 18.8301 16.2952 18.7646 16.3318C18.6315 16.406 18.4953 16.4745 18.3563 16.5372C18.2357 16.5916 18.113 16.6415 17.9885 16.6869C17.8538 16.7361 17.717 16.7799 17.5781 16.8185C17.3708 16.8759 17.1604 16.9211 16.9479 16.954C16.7937 16.9779 16.6377 16.9955 16.48 17.0066C16.3148 17.0183 16.1479 17.0228 15.9794 17.0202C15.795 17.0173 15.6092 17.0055 15.4217 16.9852C15.2844 16.9701 15.1465 16.9502 15.0079 16.9256C14.8876 16.9042 14.7669 16.8791 14.6459 16.8503C14.5823 16.8351 14.5186 16.8189 14.4548 16.8017C14.2774 16.7537 14.1008 16.7044 13.925 16.6537C13.8372 16.6283 13.7498 16.6026 13.6624 16.5765C13.5316 16.5375 13.4013 16.4977 13.2714 16.4572C13.1649 16.4239 13.0588 16.3901 12.953 16.3558C12.8521 16.3231 12.7516 16.2899 12.6514 16.2563C12.5827 16.2332 12.5143 16.2101 12.4459 16.1866C12.3627 16.158 12.2798 16.1291 12.197 16.0999C12.1377 16.0789 12.0785 16.0579 12.0194 16.0366C11.9022 15.9945 11.7855 15.9517 11.6692 15.9082C11.6015 15.8829 11.534 15.8575 11.4666 15.8317C11.3763 15.7973 11.2863 15.7624 11.1965 15.7272C11.1012 15.6898 11.0063 15.652 10.9116 15.6138C10.8501 15.5889 10.7886 15.5638 10.7272 15.5386C10.6508 15.507 10.5744 15.4753 10.4983 15.4432C10.4396 15.4185 10.3809 15.3935 10.3224 15.3683C10.2612 15.3421 10.2 15.3157 10.139 15.2891C10.0861 15.266 10.0333 15.2427 9.9805 15.2193C9.93218 15.1978 9.88401 15.1763 9.83584 15.1546C9.78695 15.1326 9.73806 15.1105 9.68932 15.0882C9.63884 15.0652 9.58844 15.0421 9.53811 15.0188C9.47453 14.9893 9.41103 14.9597 9.34766 14.9298C9.28113 14.8985 9.21482 14.8668 9.14865 14.8351C9.07773 14.801 9.00695 14.7666 8.93631 14.732C8.87605 14.7025 8.816 14.6727 8.75602 14.6428C5.59726 13.0668 2.74492 10.9402 0.332983 8.36263C0.306566 8.33448 0.272285 8.31489 0.234585 8.3064C0.196891 8.29797 0.157527 8.30107 0.121613 8.31532C0.0857049 8.32951 0.0549021 8.35421 0.0332077 8.38618C0.0115205 8.41814 -5.02379e-05 8.45595 1.63963e-07 8.49454L0.00512667 17.5784L0.00510521 18.3153C0.00450759 18.5262 0.0560181 18.7339 0.155058 18.92C0.254097 19.1061 0.397599 19.2649 0.572802 19.3823C2.88838 20.9215 5.60795 21.7406 8.38845 21.7361Z" fill="#3370FF"/>
</svg>
